<?xml version="1.0" encoding="UTF-8"?>
<svg id="Layer_1" data-name="Layer 1" xmlns="http://www.w3.org/2000/svg" viewBox="0 0 4325.919 1363.768">
  <defs>
    <style>
      .cls-1 {
        fill: #fff;
      }

      .cls-1, .cls-2 {
        fill-rule: evenodd;
      }

      .cls-3 {
        letter-spacing: -.035em;
      }

      .cls-3, .cls-4, .cls-5, .cls-6 {
        isolation: isolate;
      }

      .cls-3, .cls-5, .cls-6 {
        fill: #ffca00;
        font-family: ArialMT, Arial;
        font-size: 226.989px;
      }

      .cls-6 {
        letter-spacing: -.11em;
      }

      .cls-7, .cls-2 {
        fill: #002868;
      }

      .cls-8 {
        fill: #fefefe;
      }

      .cls-9 {
        letter-spacing: -.018em;
      }
    </style>
  </defs>
  <g id="Layer_3" data-name="Layer 3">
    <path class="cls-8" d="M129.783,195.165l957.149,1.669,79.702-76c4.356-4.407,36.929-5.945,44.719-5.8l2288.763.02,77.827,72.151h591.277l-.086,475.786c13.294,49.186,14.041,95.122,13.144,146.877l-6.715,197.54c-2.43,60.936-28.57,107.349-62.931,149.374-22.869,27.97-53.322,46.423-85.248,60.286-19.108,8.297-37.24,10.773-58.675,10.772l-602.673-.031-.445-16.352c-24.324,10.73-51.618,17.156-79.546,17.158l-1338.927.065-48.642-47.942c-19.331,20.564-62.227,35.131-88.258,40.733-17.856,3.843-43.3,6.289-63.707,7.219l-1481.325-.006,222.055-369.693-.822-345.861"/>
  </g>
  <g id="Layer_1-2" data-name="Layer 1">
    <path class="cls-2" d="M1761.78,1164.919l-1074.016.888-.41.775-274.618.231,157.438-297.042v-357.785h0L265.187,240.121l361.748-.304.446.396h486.9l72.724-68.622h2296.72l72.725,68.622h549.679v432.25c9.005,19.403,8.476,40.552,9.744,62.722.256,4.468.34,8.978.245,13.523l-4.37,119.886-10.05,135.875c-.129.974-.267,1.945-.412,2.912-1.999,13.324-5.481,26.12-10.268,38.256-20.032,50.778-62.919,90.007-115.61,108.117-19.703,6.773-40.777,10.591-62.54,10.958v.144l-543.345.988v-11.891c-20.73,7.676-43.295,11.891-66.895,11.891-3.19,0-6.362-.077-9.512-.23v.23h-1346.655l-45.939-41.971c-30.098,24.496-46.64,29.344-89.574,37.097"/>
    <path class="cls-1" d="M584.03,1083.085l77.447-152.477-.304-480.368h.09l-.015-23.817-118.54-116.777.752-.799h177.326l.282.278,352.407-.233,124.35,122.501.024.405c.123,2.104.186,4.226.186,6.362v135.855c4.562,63.047-34.37,101.197-88.672,103.411-2.343-.096-14.15,2.09-16.515,1.827-1.946-.216-3.873.587-5.78.262l.007,6.236c1.293-3.475,2.169-.697,3.259-.697,56.443,0,102.269,49.69,102.269,107.45v186.7c0,53.434-39.217,97.569-89.777,103.881h-518.797,0ZM993.5,572.986l.492-102.37h-.493v-3.339h-130.239v153.392h130.239v-47.684h.001ZM998.97,930.812v-171.307h-135.711v171.307h135.711Z"/>
    <path class="cls-1" d="M1224.464,416.58l103.228,99.975-6.502,430.791-69.902,134.114,225.962,1.625s28.855-4.606,39.015-8.941c8.524-3.637,16.391-10.16,21.946-17.069,5.554-6.909,8.221-15.99,11.38-24.385,6.53-17.35,10.632-84.923,10.632-84.923l-59.4,1.204-.813-147.932,117.045,56.084-11.38,222.84,168.252,2.309s25.333-4.47,34.951-8.941c8.749-4.066,16.621-10.439,22.759-17.881,6.367-7.722,12.999-17.938,15.443-28.448,4.064-17.475,7.448-80.045,7.448-80.045l-60.281-.227s3.793-43.649,1.625-58.718c-1.657-11.519-7.518-22.488-14.631-31.699-8.264-10.702-21.214-24.928-33.65-34.854-14.089-11.244-49.322-33.65-49.322-33.65,0,0,29.451-8.074,42.331-14.403,12.612-6.197,26.281-15.037,34.951-23.572,7.716-7.595,13.005-17.882,17.069-27.636,4.064-9.754,7.191-20.308,7.316-30.886.406-34.681-4.876-177.193-4.876-177.193l-110.542-95.912-460.052-1.625h-.005l.003-.002Z"/>
    <rect class="cls-7" x="1510.084" y="556.917" width="101.699" height="114.704"/>
    <path class="cls-1" d="M1807.935,416.58l92.119,102.957-5.418,462.761,97.537,100.788,273.105,1.084s31.068-7.405,42.266-14.089c10.312-6.153,18.423-16.798,24.926-26.01,6.243-8.845,10.885-18.92,14.089-29.261,3.974-12.825,9.261-31.468,9.754-47.684,2.349-77.307,4.335-416.159,4.335-416.159l40.099,1.084,2.167-135.469-273.105,4.335,55.213,63.942-4.335,458.426h-98.563l5.418-524.534-279.607-2.167v-.004Z"/>
    <path class="cls-1" d="M2437.546,420.915l106.208,101.872-5.418,428.08-72.611,133.301,222.168-1.084s21.279.495,38.395-12.027c9.334-6.828,18.863-18.498,23.378-25.904,4.205-6.896,8.333-13.996,10.838-21.676,2.709-8.309,4.214-18.689,5.418-28.177,1.445-11.379,2.167-43.35,2.167-43.35h-56.355l3.251-408.573,34.681,2.167,1.084-125.715-313.203,1.084h0v.002Z"/>
    <path class="cls-1" d="M2793.889,420.915l100.788,101.872-6.502,424.829-67.192,139.803,239.509-2.167,4.335-344.396,173.4,342.229s73.755.663,94.286,0c9.719-.313,21.785-1.908,30.706-5.78,9.573-4.154,23.981-10.092,29.623-20.952,4.297-8.273,7.587-13.727,10.838-23.481,3.159-9.478,5.78-19.147,7.587-28.539,1.727-8.981,2.326-22.647,2.529-31.79,1.625-73.153,5.418-411.824,5.418-411.824h39.015l2.167-139.803-217.834,1.084-3.251,331.627-171.233-333.794-274.188,1.084h0v-.002Z"/>
    <path class="cls-1" d="M4026.165,334.977l-1.625,218.646h-180.444l2.438-66.651-119.484-.813-2.438,145.494s195.21,2.438,238.967,4.064c8.078.3,17.881,3.928,23.572,5.689,3.706,1.147,7.451,2.709,10.567,4.876,3.115,2.167,6.527,4.803,9.236,7.105,2.52,2.142,4.649,4.508,7.019,6.712,2.661,2.473,6.412,4.993,8.941,8.129,3.386,4.199,8.67,11.109,11.379,17.069,2.664,5.863,4.052,15.486,4.876,18.694.047.184.076.562.076.562,0,0,2.473,11.493,2.362,17.319-.961,50.3-3.985,234.953-6.423,284.398-.241,4.885-3.769,10.531-5.651,14.067-1.489,2.8-3.045,5.534-4.615,8.173-1.916,3.224-5.671,9.211-6.883,11.169-.122.198-.259.388-.388.582-1.625,2.438-6.585,10.353-9.366,14.049-2.192,2.913-5.105,6.878-8.083,8.98,0,0-11.597,9.085-17.422,12.742-5.094,3.199-12.992,7.482-19.233,7.583-76.488,1.257-439.698-.046-439.698-.046l5.689-227.588h195.074l-1.625,72.34,116.233-1.625,2.438-157.686-204.016.813-122.734-120.296s2.242-186.606,4.274-227.247c.308-6.177,4.156-11.279,7.918-16.597,3.475-4.912,8.264-10.973,10.567-14.631,1.422-2.258,3.726-5.308,5.382-7.401,2.679-3.386,6.046-7.333,9.839-10.448,3.656-3.003,10.704-8.502,10.704-8.502l13.563-9.839s9.96-6.889,14.971-9.327c4.855-2.362,10.127-3.939,15.443-4.876,6.909-1.219,17.303-2.32,26.01-2.438,69.766-.948,392.588-3.251,392.588-3.251v.005l.003.002Z"/>
    <g class="cls-4">
      <g class="cls-4">
        <text class="cls-5" transform="translate(1252.3033 367.5494) scale(.85 1)"><tspan x="0" y="0">CAROLIN</tspan></text>
        <text class="cls-6" transform="translate(2109.9849 367.5494) scale(.85 1)"><tspan x="0" y="0">A</tspan></text>
      </g>
      <g class="cls-4">
        <text class="cls-5" transform="translate(2281.8902 367.5494) scale(.85 1)"><tspan x="0" y="0">U</tspan></text>
      </g>
      <g class="cls-4">
        <text class="cls-5" transform="translate(2421.2603 367.5494) scale(.85 1)"><tspan x="0" y="0">NIVERSI</tspan><tspan class="cls-9" x="908.178" y="0">T</tspan></text>
        <text class="cls-3" transform="translate(3311.066 367.5494) scale(.85 1)"><tspan x="0" y="0">Y</tspan></text>
      </g>
    </g>
  </g>
</svg>