<?xml version="1.0" encoding="UTF-8"?>
<svg id="Layer_1" data-name="Layer 1" xmlns="http://www.w3.org/2000/svg" viewBox="0 0 6000 2593.12">
  <defs>
    <style>
      .cls-1 {
        fill: #f4f4f3;
      }

      .cls-2 {
        fill: #fac70e;
      }

      .cls-3 {
        fill: #f7f6f6;
      }

      .cls-4 {
        fill: #fac70f;
      }

      .cls-5 {
        fill: #f2c116;
      }

      .cls-6 {
        fill: #070602;
      }

      .cls-7 {
        fill: #f5c314;
      }

      .cls-8 {
        fill: #1e3064;
      }

      .cls-9 {
        fill: #f7c513;
      }

      .cls-10 {
        fill: #f8c511;
      }

      .cls-11 {
        fill: #f9c60f;
      }

      .cls-12 {
        fill: #f3f2f2;
      }

      .cls-13 {
        fill: #f6f5f5;
      }

      .cls-14 {
        fill: #fdf6f5;
      }

      .cls-15 {
        fill: #f6c413;
      }
    </style>
  </defs>
  <path class="cls-14" d="M227.866,2208.568c-60.007-74.989-125.428-186.905-150.917-278.619l-36.959-132.989c-10.861-39.081-7.895-75.133,3.529-113.046,17.037-56.544,34.355-110.688,58.044-164.932l49.769-113.962c-9.985-47.935-17.603-92.171-16.6-140.507,5.534-60.639,22.275-119.642,53.892-171.985,25.817-42.741,61.499-75.096,97.093-109.724-28.493-71.831-26.22-144.402-4.488-216.04,14.328-47.229,32.296-87.494,62.632-126.518,31.385-40.374,61.388-80.52,101.601-112.953,20.149-16.251,41.959-28.372,63.025-42.654,11.534-68.523,25.574-137.85,65.044-195.884,60.802-89.398,196.8-183.764,303.01-212.731,50.437-22.97,101.483-24.597,156.005-31.441,117.131-14.703,235.222-14.042,351.856,13.491l4560.205.096c20.603,0,23.597,28.924,21.681,46.204l-349.551,868.449c-3.042,7.558-10.769,19.719-18.72,19.819l-130.705,1.633-437.34,1048.339-79.018,182.246c-17.002,39.213-133.721,156.047-180.543,184.966l-119.149,73.591c-55.966,29.032-113.651,51.745-174.906,70.98l-3673.523.074c-85.562-54.916-157.793-132.598-209.124-222.628-98.772,2.615-191.57-21.12-278.363-66.721-31.545-16.574-64.098-28.454-87.477-56.552ZM1373.469,112.32c-175.004-32.414-354.151-37.755-521.726,32.394-57.494,24.067-107.572,57.723-154.384,98.377-57.411,49.859-102.241,111.664-124.888,184.317l-9.458,82.127c-62.713,28.134-112.514,73.183-155.167,127.352-51.358,65.224-89.946,139.658-101.343,222.996-7.407,54.165,7.801,106.054,27.128,155.637-36.473,35.888-72.02,72.206-97.76,116.774-53.347,92.367-54.031,194.006-40.379,297.422l-43.028,72.643c-35.831,60.494-54.291,128.934-70.05,197.407-6.987,30.36-5.086,56.161,2.339,86.326,25.964,105.478,67.299,204.562,116.731,301.321,15.22,29.793,25.582,60.084,47.262,85.447,31.966,37.397,74.904,58.506,120.699,75.922,77.586,29.506,159.096,43.973,240.134,32.865,41.886,95.955,116.237,185.339,208.396,241.171l3644.171.209c58.668-19.298,116.266-36.798,167.82-68.542l133.494-82.197c57.431-43.455,112.692-95.06,151.387-156.447,29.382-46.612,46.071-97.954,67.477-149.234l460.183-1102.428,141.113-.78,352.908-874.886-4465.272-.133c-36.628-.001-67.345,12.472-97.787,23.942Z"/>
  <path class="cls-7" d="M1368.728,1013.172l-113.57,334.703-32.142-1.114,18.596-104.175c5.091-28.523-.051-59.085-2.374-87.784,20.776-40.79,43.502-79.855,55.603-125.016l73.888-16.614Z"/>
  <g>
    <path class="cls-4" d="M609.581,2281.644l68.791-14.853c21.473,43.494,47.076,82.15,78.375,118.748,27.573,32.243,58.447,60.265,95.289,81.921l3581.902.058c98.878-27.144,189.732-74.29,273.478-131.177,31.952-21.704,59.1-42.121,85.187-70.462,25.814-28.044,58.18-52.206,73.398-88.417l105.008-249.867,148.315-364.775,173.164-426.625,99.007-241.392,140.783-.828,104.311-255.824,169.752-417.783,26.775-68.857c1.629-4.19-2.217-10.743-9.12-8.895l-4288.384.095-59.774,3.649c-64.621,14.472-125.63,37.437-183.581,68.571-33.863,18.193-61.266,40.353-87.521,67.566-25.666,26.601-51.919,50.875-73.575,81.808-30.776-17.76-59.221-33.842-93.125-40.465-24.552-4.796-74.198,8.674-73.744,10.699.433,1.931,5.283,4.866,7.185,5.911,56.335,29.427,100.85,68.203,136.249,120.746,47.346,61.991,88.417,128.107,107.887,204.522,13.124,51.505,12.228,103.577,15.602,156.547-64.878-22.667-114.134-58.922-164.858-100.783-31.995,60.365-53.713,120.643-69.363,183.612-3.446,13.865-2.187,26.39,6.514,37.7,49.454,60.277,134.931,78.12,211.408,90.543-10.546,20.355-17.116,45.777-36.441,56.804-23.406,13.356-58.376,10.896-85.589,4.024-61.201-15.455-114.27-49.782-161.365-90.619-7.917-6.865-7.98-19.764-23.725-22.579,37.956,119.71,122.54,190.554,242.577,228.683,9.006,42.132-.469,81.916-16.075,121.199-65.873-13.486-124.617-38.656-178.62-76.032l-70.466-41.783c-51.607,57.169-67.013,128.841-74.275,202.479-.708,7.183,2.173,16.92,8.963,20.298,76.058,37.836,127.002,43.523,213.957,47.171-17.06,39.958-59.763,60.486-99.604,61.063-151.083,2.188-246.692-80.901-255.417-82.03-26.991-3.492,82.012,155.432,266.657,168.057,3.388.232,6.714.804,7.237,2.631,1.595,5.563-28.219,44.247-51.085,47.927-60.033,9.662-117.529-2.369-175.02-21.823-30.795,50.151-51.753,102.928-64.448,160.532,34.001,18.652,71.275,26.536,109.695,26.591l80.364.115c-49.784,73.541-165.208,92.136-245.818,55.742-40.209-10.081-74.467-29.991-104.187-56.138l-2.771,2.477c6.862,16.069,18.076,29.076,31.683,42.656,65.478,65.345,155.008,99.858,247.728,94.685-1.184,5.455-5.407,13.832-10.957,15.213-65.375,16.268-150.073,12.456-211.12-19.997-18.754,14.532-30.679,32.738-43.763,51.612l-30.038,43.33c24.512,28.665,57.498,39.96,94.25,49.297-7.074,9.724-17.346,15.275-28.478,18.533-45.868,13.422-93.036,7.492-135.362-14.656-91.71-47.99-139.85-105.874-176.804-200.707-13.914-35.706-34.181-67.34-40.708-106.086-17.916-106.355,13.421-214.348,83.221-294.696,33.099,47.498,66.363,88.927,108.589,120.42l3.82-4.27c-70.467-114.584-93.535-255.062-59.055-387.64,12.041-46.299,38.372-85.017,69.278-122.179,35.402,45.566,70.591,85.774,118.432,109.486l3.315-3.536c-16.559-15.471-24.748-36.949-34.702-57.765-28.206-58.987-39.072-119.734-45.48-184.722-6.257-63.47,1.152-120.72,24.483-179.598,35.611-89.866,85.883-164.459,175.713-207.588,25.968,34.564,44.401,71.231,84.348,91.071-33.322-83.65-33.355-166.005-14.579-249.057,14.424-63.799,49.903-114.469,106.813-146.995,37.157-21.237,72.408-43.4,114.709-54.776,79.099-21.272,157.798-30.214,241.862-31.231,59.745-47.211,126.356-80.062,196.811-106.606,30.443-11.47,61.159-23.943,97.787-23.942l4465.272.133-352.908,874.886-141.113.78-460.183,1102.428c-21.405,51.28-38.094,102.622-67.477,149.234-38.696,61.387-93.956,112.992-151.387,156.447l-133.494,82.197c-51.554,31.744-109.152,49.244-167.82,68.542l-3644.171-.209c-92.159-55.832-166.51-145.216-208.396-241.171ZM525.136,1241.833l-3.345,2.902c2.117,3.869,7.099.19,3.345-2.902ZM393.263,1645.076l-3.941,3.627c2.933,4.804,8.269-.464,3.941-3.627ZM499.185,1842.588c1.784.262-5.646-.349-1.651,4.37l1.651-4.37Z"/>
    <path class="cls-3" d="M1383.365,941.817c-113.367,47.854-217.497,36.591-324.762-27.544-7.971-4.81-11.885-12.856-9.875-22.303,7.424-34.908,19.456-66.688,40.247-99.301,30.263,30.291,64.052,49.562,99.62,70.907,60.546,33.752,123.528,54.613,194.771,78.242Z"/>
    <path class="cls-13" d="M974.383,1407.402c-34.99-9.68-66.452-16.51-96.999-33.717,5.718-32.676,13.282-63.453,28.326-94.526,85.576,58.774,183.802,92.133,288.056,104.035-69.997,37.225-145.095,40.302-219.382,24.207Z"/>
    <path class="cls-1" d="M699.563,1786.513c2.97-27.818,16.378-48.997,27.041-74.875,22.732,12.672,43.754,14.73,67.489,18.572,88.59,14.339,172.732,5.241,260.111-20.096-31.754,37.912-74.404,48.526-115.225,65.431-76.818,20.931-155.979,26.099-239.417,10.968Z"/>
    <path class="cls-1" d="M754.878,2082.038c-80.051,39.043-146.19,33.267-224.768-3.448l39.722-47.333c81.966,38.185,165.905,12.949,252.008-13.551-15.347,31.256-39.64,48.467-66.962,64.331Z"/>
    <path class="cls-5" d="M1156.415,1638.976c-18.005,6.807-36.266,16-58.207,12.589l-4.148-54.435c31.161-27.862,55.72-59.92,76.193-96.475l35.215-62.88c4.472-7.984,17.04-12.904,23.173-17.543l-72.227,218.744Z"/>
  </g>
  <g>
    <g>
      <path class="cls-8" d="M2375.533,1147.713c15.389-8.214,30.758-21.887,42.123-37.271,36.8-49.811,47.897-110.608,41.107-169.718l81.206-197.439-444.584-.937-100.409,247.697-83.898,40.233,59.172,19.629-352.406,877.611,445.241-1.104,116.439-288.135,604.76.498-98.137,244.947-58.704,123.043c-55.818,100.49-98.112,136.39-194.566,190.846-87.024,49.132-147.086,72.001-250.276,72.09l-806.182.693-153.997-3.286c-28.193-.602-51.361-14.018-71.912-34.832-79.016-80.026-119.649-199.189-91.44-310.61l64.537-193.761,50.247-57.284c12.696-14.474,25.091-26.876,28.784-49.122l-46.222,17.476,72.227-218.744c26.192-19.815,49.242-42.094,68.711-71.024l-42.195-1.333,113.57-334.703,34.204-15.94c36.718-17.111,110.044-58.073,95.767-72.827-7.282-7.525-46.702.738-87.545-30.133l111.33-324.156,85.352-84.778c70.292-61.989,149.055-110.385,236.879-144.583l1115.203.868c36.859.029,68.405,23.793,94.868,43.574l53.251,53.285c27.6,27.617,46.361,60.823,54.847,99.651,13.339,44.704,12.082,89.819-6.559,134.423l-232.764,556.964-578.738.01,30.709-81.817Z"/>
      <path class="cls-15" d="M1123.606,1727.906l-64.537,193.761c-28.209,111.421,12.424,230.584,91.44,310.61,20.551,20.814,43.719,34.231,71.912,34.832l153.997,3.286,806.182-.693c103.191-.089,163.252-22.958,250.276-72.09,96.454-54.456,138.749-90.356,194.566-190.846l58.704-123.043,98.137-244.947-604.76-.498-116.439,288.135-445.241,1.104,352.406-877.611,47.652,13.845c2.698,12.253,4.253,22.027,3.333,35.654l-305.186,759.102,301.447.395,113.718-278.325,741.524.106-139.014,354.561c-25.517,65.083-55.061,124.089-94.697,181.272-32.369,39.345-67.185,73.413-109.764,101.679-57.298,38.036-196.817,116.128-249.224,116.164l-1379.514.949c-42.522-34.713-80.031-75.997-103.538-126.547,95.152-72.648,130.906-150.556,135.246-270.098,40.376-24.838,67.645-58.4,91.429-98.159l35.254-58.931,61.675-56.932c2.171,1.597,2.794,3.01,3.015,3.262Z"/>
      <path class="cls-2" d="M2375.533,1147.713l-30.709,81.817,578.738-.01,232.764-556.964c18.641-44.604,19.898-89.719,6.559-134.423-8.486-38.828-27.247-72.034-54.847-99.651l-53.251-53.285c-26.463-19.782-58.009-43.546-94.868-43.574l-1115.203-.868c-87.824,34.198-166.587,82.593-236.879,144.583l-85.352,84.778-111.33,324.156c-8.668-6.551-19.359-11.373-27.712-22.571-31.993-42.885-53.088-90.653-68.862-142.212l-53.248-174.038,30.565-80.673c47.042-70.616,150.612-162.748,232.345-199.198l1465.806.432c22.688.007,41.512,19.194,58.314,29.502,60.27,36.972,106.557,87.16,143.458,147.16,19.763,32.135,29.999,66.822,40.303,103.585,3.655,32.446,9.942,66.001-3.355,98.225l-257.271,623.42-714.882-.181,32.934-84.114,85.983-45.898Z"/>
      <path class="cls-11" d="M2170.348,1098.109c17.127,3.038,30.27-3.274,36.869-17.334,21.323-45.43,34.631-116.58.195-140.721-12.165-8.528-26.854-8.274-40.804-5.105l-64.104,14.566c37.513-62.584,67.55-56.264,125.773-58.562l61.168-2.415,63.319-4.18c52.894,47.925,57.681,134.552,6.463,186.393-22.189,22.459-49.9,39.071-76.668,55.154-50.328,30.24-152.756,34.238-182.252-11.977l-11.625-30.304,81.668,14.485Z"/>
      <path class="cls-9" d="M2458.763,940.724c-3.34-29.074-14.488-55.147-33.919-79.051l23.525-60.978-305.507.104-13.319,29.101c-60.704,42.495-97.638,72.456-107.119,149.388l-27.448,10.757,100.409-247.697,444.584.937-81.206,197.439Z"/>
      <path class="cls-12" d="M2168.4,1055.794c-24.217,3.387-46.008-.76-68.439-5.932l-100.833-23.253,165.129-52.756c24.598-7.859,21.014,41.167,4.143,81.942Z"/>
    </g>
    <path class="cls-6" d="M1373.469,112.32c-70.455,26.545-137.067,59.395-196.811,106.606-84.063,1.016-162.763,9.958-241.862,31.231-42.3,11.376-77.552,33.539-114.709,54.776-56.91,32.527-92.389,83.196-106.813,146.995-18.776,83.052-18.743,165.407,14.579,249.057-39.947-19.84-58.38-56.507-84.348-91.071-89.829,43.128-140.102,117.722-175.713,207.588-23.331,58.878-30.74,116.128-24.483,179.598,6.407,64.988,17.274,125.735,45.48,184.722,9.954,20.816,18.143,42.294,34.702,57.765.559.522,1.38,1.778,1.645,2.246,3.754,3.092-1.228,6.771-3.345,2.902-.368-.708-1.146-1.38-1.614-1.612-47.841-23.713-83.03-63.921-118.432-109.486-30.905,37.162-57.237,75.88-69.278,122.179-34.48,132.579-11.411,273.056,59.055,387.64.427.694,1.29,1.387,1.741,1.62,4.329,3.163-1.007,8.431-3.941,3.627-.333-.443-1.278-.761-1.62-.977-42.226-31.493-75.49-72.922-108.589-120.42-69.8,80.347-101.137,188.341-83.221,294.696,6.527,38.746,26.794,70.38,40.708,106.086,36.954,94.833,85.094,152.717,176.804,200.707,42.326,22.148,89.494,28.078,135.362,14.656,11.132-3.257,21.403-8.808,28.478-18.533-36.752-9.337-69.738-20.631-94.25-49.297l30.038-43.33c13.084-18.874,25.009-37.08,43.763-51.612,61.047,32.453,145.744,36.265,211.12,19.997,5.549-1.381,9.772-9.758,10.957-15.213-92.72,5.173-182.251-29.34-247.728-94.685-13.607-13.58-24.821-26.586-31.683-42.656-.308-.722-1.265-1.203-1.925-1.165-3.994-4.719,3.435-4.108,1.651-4.37,2.21,1.402,2.777,2.627,3.045,3.058,29.72,26.147,63.978,46.057,104.187,56.138,80.609,36.394,196.034,17.8,245.818-55.742l-80.364-.115c-38.421-.055-75.694-7.939-109.695-26.591,12.695-57.605,33.653-110.381,64.448-160.532,57.491,19.454,114.987,31.485,175.02,21.823,22.866-3.68,52.68-42.364,51.085-47.927-.524-1.827-3.849-2.399-7.237-2.631-184.645-12.626-293.648-171.549-266.657-168.057,8.725,1.129,104.334,84.218,255.417,82.03,39.84-.577,82.544-21.105,99.604-61.063-86.955-3.648-137.899-9.335-213.957-47.171-6.79-3.378-9.671-13.115-8.963-20.298,7.262-73.638,22.668-145.31,74.275-202.479l70.466,41.783c54.002,37.375,112.746,62.546,178.62,76.032,15.606-39.283,25.081-79.066,16.075-121.199-120.037-38.128-204.621-108.972-242.577-228.683,15.744,2.815,15.808,15.714,23.725,22.579,47.096,40.837,100.164,75.164,161.365,90.619,27.213,6.872,62.183,9.332,85.589-4.024,19.325-11.027,25.895-36.449,36.441-56.804-76.477-12.424-161.954-30.267-211.408-90.543-8.701-11.31-9.96-23.835-6.514-37.7,15.651-62.968,37.368-123.247,69.363-183.612,50.724,41.862,99.98,78.116,164.858,100.783-3.374-52.97-2.478-105.042-15.602-156.547-19.47-76.415-60.541-142.531-107.887-204.522-35.399-52.543-79.914-91.319-136.249-120.746-1.901-1.045-6.752-3.98-7.185-5.911-.454-2.025,49.192-15.495,73.744-10.699,33.904,6.623,62.349,22.705,93.125,40.465,21.656-30.934,47.909-55.207,73.575-81.808,26.256-27.213,53.659-49.373,87.521-67.566,57.951-31.134,118.96-54.099,183.581-68.571l59.774-3.649,4288.384-.095c6.903-1.848,10.749,4.705,9.12,8.895l-26.775,68.857-169.752,417.783-104.311,255.824-140.783.828-99.007,241.392-173.164,426.625-148.315,364.775-105.008,249.867c-15.218,36.211-47.584,60.373-73.398,88.417-26.087,28.34-53.235,48.758-85.187,70.462-83.746,56.887-174.6,104.033-273.478,131.177l-3581.902-.058c-36.842-21.655-67.716-49.678-95.289-81.921-31.299-36.598-56.903-75.255-78.375-118.748l-68.791,14.853c-81.037,11.108-162.547-3.359-240.134-32.865-45.794-17.416-88.733-38.525-120.699-75.922-21.68-25.363-32.042-55.654-47.262-85.447-49.432-96.758-90.767-195.842-116.731-301.321-7.425-30.164-9.326-55.966-2.339-86.326,15.759-68.472,34.219-136.913,70.05-197.407l43.028-72.643c-13.651-103.415-12.967-205.055,40.379-297.422,25.74-44.567,61.286-80.886,97.76-116.774-19.327-49.583-34.535-101.472-27.128-155.637,11.397-83.338,49.985-157.772,101.343-222.996,42.653-54.169,92.454-99.218,155.167-127.352l9.458-82.127c22.647-72.653,67.477-134.458,124.888-184.317,46.812-40.654,96.89-74.309,154.384-98.377,167.575-70.149,346.722-64.808,521.726-32.394ZM1411.154,894.272c40.843,30.872,80.264,22.608,87.545,30.133,14.277,14.754-59.049,55.716-95.767,72.827l-34.204,15.94-73.888,16.614c-12.101,45.161-34.826,84.226-55.603,125.016,2.323,28.699,7.466,59.262,2.374,87.784l-18.596,104.175,32.142,1.114,42.195,1.333c-19.469,28.93-42.52,51.209-68.711,71.024-6.133,4.64-18.702,9.559-23.173,17.543l-35.215,62.88c-20.472,36.555-45.032,68.613-76.193,96.475l4.148,54.435c21.941,3.411,40.202-5.782,58.207-12.589l46.222-17.476c-3.693,22.246-16.088,34.647-28.784,49.122l-50.247,57.284c-.221-.252-.844-1.666-3.015-3.262l-61.675,56.932-35.254,58.931c-23.784,39.758-51.053,73.32-91.429,98.159-4.34,119.542-40.095,197.449-135.246,270.098,23.506,50.55,61.016,91.833,103.538,126.547l1379.514-.949c52.407-.036,191.926-78.127,249.224-116.164,42.579-28.265,77.395-62.334,109.764-101.679,39.636-57.183,69.18-116.19,94.697-181.272l139.014-354.561-741.524-.106-113.718,278.325-301.447-.395,305.186-759.102c.92-13.626-.635-23.401-3.333-35.654l-47.652-13.845-59.172-19.629,83.898-40.233,27.448-10.757c9.481-76.931,46.415-106.892,107.119-149.388l13.319-29.101,305.507-.104-23.525,60.978c19.432,23.904,30.579,49.977,33.919,79.051,6.79,59.11-4.307,119.907-41.107,169.718-11.366,15.384-26.735,29.056-42.123,37.271l-85.983,45.898-32.934,84.114,714.882.181,257.271-623.42c13.298-32.223,7.01-65.778,3.355-98.225-10.304-36.763-20.54-71.451-40.303-103.585-36.901-60.001-83.188-110.188-143.458-147.16-16.802-10.307-35.626-29.495-58.314-29.502l-1465.806-.432c-81.733,36.45-185.304,128.582-232.345,199.198l-30.565,80.673,53.248,174.038c15.775,51.559,36.87,99.326,68.862,142.212,8.354,11.198,19.045,16.019,27.712,22.571ZM5305.417,748.041l132.888-.204,204.302-472.129-1163.099.022,207.383,231.818-554.103,1353.72-299.523-2.105,632.971-1583.672-1301.094.422,246.934,338.769-549.615,1374.772,291.833,345.708,1257.231-.145,75.126-31.62c50.465-27.948,95.852-60.679,141.538-95.76,55.021-42.249,140.359-128.32,164.235-187.525l512.993-1272.072ZM1383.365,941.817c-71.243-23.629-134.226-44.49-194.771-78.242-35.568-21.345-69.356-40.616-99.62-70.907-20.791,32.614-32.822,64.393-40.247,99.301-2.009,9.448,1.905,17.494,9.875,22.303,107.265,64.135,211.395,75.398,324.762,27.544ZM2170.348,1098.109l-81.668-14.485,11.625,30.304c29.496,46.215,131.924,42.217,182.252,11.977,26.768-16.084,54.478-32.695,76.668-55.154,51.218-51.841,46.431-138.467-6.463-186.393l-63.319,4.18-61.168,2.415c-58.223,2.298-88.26-4.021-125.773,58.562l64.104-14.566c13.951-3.17,28.639-3.424,40.804,5.105,34.436,24.14,21.128,95.291-.195,140.721-6.599,14.06-19.742,20.371-36.869,17.334ZM2168.4,1055.794c16.871-40.775,20.455-89.8-4.143-81.942l-165.129,52.756,100.833,23.253c22.431,5.173,44.222,9.319,68.439,5.932ZM974.383,1407.402c74.287,16.095,149.385,13.018,219.382-24.207-104.254-11.902-202.479-45.262-288.056-104.035-15.044,31.073-22.608,61.85-28.326,94.526,30.547,17.207,62.009,24.037,96.999,33.717ZM699.563,1786.513c83.438,15.131,162.598,9.962,239.417-10.968,40.821-16.904,83.47-27.519,115.225-65.431-87.38,25.337-171.522,34.435-260.111,20.096-23.735-3.842-44.757-5.9-67.489-18.572-10.663,25.878-24.071,47.057-27.041,74.875ZM754.878,2082.038c27.322-15.864,51.614-33.075,66.962-64.331-86.103,26.499-170.042,51.736-252.008,13.551l-39.722,47.333c78.578,36.715,144.717,42.49,224.768,3.448Z"/>
    <g>
      <path class="cls-10" d="M5305.417,748.041l-512.993,1272.072c-23.876,59.205-109.214,145.276-164.235,187.525-45.686,35.081-91.073,67.812-141.538,95.76l-75.126,31.62-1257.231.145-291.833-345.708,549.615-1374.772-246.934-338.769,1301.094-.422-632.971,1583.672,299.523,2.105,554.103-1353.72-207.383-231.818,1163.099-.022-204.302,472.129-132.888.204ZM5259.208,675.974l150.439-.205,138.389-336.583-921.565.168,132.932,156.666-577.937,1431.632-445.272-.608,640.163-1587.865-899.017.129,204.456,282.758-554.064,1365.805,234.417,282.245,945.017.105,83.962-1.548c106.728-49.208,202.992-117.852,282.811-203.486,27.808-29.833,48.935-60.797,66.177-96.746l23.652-49.313,495.44-1243.153Z"/>
      <path class="cls-8" d="M5259.208,675.974l-495.44,1243.153-23.652,49.313c-17.242,35.949-38.369,66.913-66.177,96.746-79.819,85.634-176.084,154.278-282.811,203.486l-83.962,1.548-945.017-.105-234.417-282.245,554.064-1365.805-204.456-282.758,899.017-.129-640.163,1587.865,445.272.608,577.937-1431.632-132.932-156.666,921.565-.168-138.389,336.583-150.439.205Z"/>
    </g>
  </g>
</svg>