<?xml version="1.0" encoding="UTF-8"?>
<svg id="Black" xmlns="http://www.w3.org/2000/svg" viewBox="0 0 6000 1683.835">
  <g>
    <path d="M3010.703,644.939c-132.832,184.264-406.608,200.658-562.193,35.972-130.495-138.128-121.521-348.414,16.557-476.227,149.676-138.549,387.598-128.353,523.977,25.149,103.43,116.416,113.694,287.434,21.659,415.106ZM2771.798,729.771c82.909-18.729,138.414-86.471,163.174-166.362,24.429-78.822,23.009-162.978-4.983-240.604-34.783-96.458-108.953-158.159-213.567-158.809-106.914-.664-182.179,60.54-217.438,159.516-28.141,78.995-28.808,164.517-3.318,244.424,11.771,36.902,29.177,69.251,54.522,97.926,55.823,63.157,140.35,82.265,221.61,63.909Z"/>
    <path d="M5693.093,559.214l-239.492-.133-37.702,86.989c-7.424,17.128-11.781,34.655-14.3,52.943,4.449,39.85,58.044,37.916,100.934,38.401l.177,32.77-277.831-.007.19-32.692c42.624,2.027,89.301-6.59,108.136-42.691l35.204-67.477,223.205-519.415,22.131.435,221.425,515.148c10.838,25.214,22.458,47.795,36.86,70.281,24.18,37.753,57.072,44.704,101.545,43.852l-.204,32.579-329.355-.021-.414-32.649c37.677-.71,85.584.712,97.392-32.449,1.594-18.091-2.261-34.312-7.609-51.713l-40.29-94.152ZM5669.351,504.685l-96.296-222.742-96.156,222.998,192.452-.256Z"/>
    <path d="M164.65,439.082c-2.056,129.91,44.687,278.376,187.463,294.313,138.703,15.483,219.2-96.442,243.666-222.316l29.834.462-.004,255.889-28.61-.044c-5.741-24.583-11.628-48.964-25.152-71.105-45.667,50.764-104.221,87.697-172.128,94.695-89.566,9.23-177.243-24.047-243.165-84.253C9.058,572.018,6.115,334.674,152.066,196.47c65.422-61.95,153.692-97.132,244.239-89.284,68.978,5.978,130.178,42.998,175.409,94.402,13.178-21.845,18.772-46.105,25.534-70.448l28.299-.016.065,255.053-29.904-.22c-24.256-123.998-101.024-233.399-236.484-222.896-139.688,10.831-192.56,148.814-194.573,276.022Z"/>
    <path d="M3813.279,591.658l31.901-.094-10.171,178.03-587.422.006-.596-29.145,55.803-5.678c26.767-5.735,44.309-25.233,50.974-51.817,8.659-34.533,9.564-69.171,9.562-105.825l-.012-253.74c-.002-35.339-.925-68.559-8.985-102.237-9.407-39.305-35.36-54.063-74.913-56.725l-32.506-2.187.571-28.981,337.444-.066.286,29.167-17.824,1.048c-44.039,2.589-77.617,9.021-89.473,56.989-8.471,34.275-9.247,68.511-9.246,104.291l.004,228.46c0,36.417.913,71.296,9.611,105.964,7.512,29.941,28.918,48.966,59.816,52.573,37.623,4.392,75.237,4.031,113.591,2.896,55.058-1.63,128.685-3.765,144.93-62.607l16.654-60.321Z"/>
    <g>
      <path d="M3928.856,770.189l-1.137-30.074,40.764-3.266c42.584-3.412,63.172-28.94,69.841-70.547,4.805-29.978,5.951-58.728,5.946-89.706l-.046-253.708c-.006-35.33-.969-68.615-9.018-102.221-9.713-40.553-36.507-54.434-77.159-56.932l-30.223-1.857.514-29.271,337.398.036.22,29.012-45.2,3.721c-32.145,2.646-54.758,23.192-62.123,54.565-8.035,34.223-9.156,68.401-9.148,104.274l.053,253c.008,36.018,1.097,70.245,9.378,104.592,7.424,30.795,30.283,52.046,61.764,54.549l45.065,3.583.143,30.205-337.033.042Z"/>
      <path d="M4606.837,286.716c-2.123-2.544-3.851-4.034-4.898-4.657l.288,294.496c.03,31.068,1.293,59.714,6.028,89.74,6.542,41.481,27.367,67.23,69.752,70.588l40.606,3.218-.3,30.083-287.708-.032.152-30.328,50.772-4.501c29.151-2.584,49.053-24.946,56.05-53.519,8.218-33.555,9.306-67.053,9.308-102.316l.013-257.545c.002-35.708-1.078-69.835-9.593-103.694-6.956-27.66-25.981-46.719-53.856-51.553l-52.697-4.75-.093-29.336,182.338.083,390.434,463.123-.265-273.866c-.035-35.717-1.479-69.813-9.562-103.708-7.501-27.586-25.873-46.709-54.024-51.577l-52.554-4.7-.107-29.325,287.513.031.42,29.342c-47.849,1.299-92.692,4.062-105.869,53.459-9.147,34.286-10.545,68.562-10.58,105.324l-.451,471.597-29.065.013-422.049-505.692Z"/>
    </g>
    <g>
      <path d="M1824.463,577.456c.291,36.414.762,70.781,9.58,104.291,13.99,53.164,55.366,55.654,106.678,57.382l-.297,30.354-337.221.003-.724-30.086,45.385-3.657c32.432-2.613,55.275-24.767,62.401-56.334,7.652-33.896,8.849-67.426,8.846-102.829l-.022-253.057c-.003-35.834-.852-70.013-9.236-104.314-11.961-48.936-46.362-53.994-89.526-56.957l-17.786-1.221.223-30.137,305.425.461c60.37.091,121.827,12.816,169.691,48.553,44.139,32.956,67.616,84.547,64.974,139.885-2.89,97.487-81.047,159.619-176.468,172.805l96.956,116.943c44.588,53.78,118.993,119.458,190.386,129.045l.03,30.936-189.01-.012-200.265-274.076-40.68-.609.66,82.633ZM1990.576,215.102c-21.176-18.234-46.718-29.382-75.363-29.516l-91.354-.427v255.471s86.898-.43,86.898-.43c31.376-.155,61.427-10.326,83.183-32.651,46.424-47.637,44.82-144.686-3.365-192.447Z"/>
      <path d="M1223.355,559.307l-239.593-.169-37.981,87.64c-6.361,14.678-10.163,30.02-13.555,45.641-3.47,46.181,54.816,44.327,100.586,45.188l-.11,32.607-277.278-.024-.262-32.547c47.915.148,83.597-3.486,109.491-45,12.717-20.389,23.167-40.332,32.918-63.024l224.016-521.345,22.137-.31,221.924,516.285c10.196,23.72,21.085,44.693,34.37,66.093,24.463,39.408,55.841,48.688,103.662,47.058l.159,32.778-329.97.008.157-32.699c48.508-.438,102.204-1.023,97.639-49.85-2.855-18.152-8.742-35.687-15.705-52.799l-32.604-75.532ZM1199.613,504.839l-96.067-222.833-96.45,222.85,192.517-.018Z"/>
    </g>
  </g>
  <rect x="43.699" y="1002.856" width="5930.02" height="18.134"/>
  <path d="M3380.11,1425.083l1.921,75.44c2.793,22.651,18.325,37.572,42.267,35.317,1.762.062,10.034.119,10.009,2.505l-.132,12.368-156.375.044-.366-14.006c13.774-.879,23.911-.204,34.34-5.806,11.604-6.234,17.665-21.561,17.68-35.067l.212-184.385c.012-10.197-4.447-23.668-10.645-30.192-11.133-11.721-24.427-11.004-41.094-10.527l-.253-16.178,141.645.386c59.152.161,112.571,28.905,108.266,91.206-2.192,43.362-38.095,70.436-81.075,77.152l51.82,61.466c19.066,22.615,50.316,46.269,79.932,52.165l.144,13.721-87.596.171-90.948-124.35c-5.741-1.317-12.481-1.622-19.752-1.43ZM3464.143,1376.112c15.659-24.899,12.651-55.288-3.624-77.974-9.822-10.013-22.69-16.989-37.059-17.128l-43.255-.417-.039,118.194,39.377-.451c17.084-.196,34.9-6.799,44.6-22.223Z"/>
  <path d="M1031.392,1561.061l-195.436-234.469-.113,160.885c-.01,14.011,4.489,27.81,11.276,38.729,12.776,9.186,24.189,10.576,41.093,9.982l.289,14.523-131.05.013c-3.562-1.363-3.3-12.945.196-13.906,11.924-1.214,26.132-.411,35.676-8.033,9.073-7.246,13.706-21.114,14.257-33.404,2.821-62.864,3.153-124.588-.289-187.203-.758-13.789-7.077-27.828-19.039-33.302-10.323-4.724-20.522-4.387-32.926-4.424l.202-14.645,84.614-.117,180.26,214.023-.146-129.163-3.374-41.904c-3.63-13.706-12.932-25.993-28.031-27.009l-22.625-1.522.52-14.353,133.046.008-.063,14.914c-14.12-.039-29.526-1.728-40.461,9.729-8.083,8.469-12.456,24.619-12.473,37.569l-.311,243.568-15.091-.489Z"/>
  <path d="M2745.128,1407.75l.383,61.026,4.179,30.117c1.953,14.074,15.028,25.322,29.366,25.107l64.206-.961c16.522-.247,32.799-10.415,37.412-26.488l7.875-27.438,14.709-.852-5.148,82.485-254.96-.005-.724-14.731c15.395.132,27.638.875,38.525-8.011,9.559-7.802,14.185-22.915,14.197-35.961l.162-176.812c.011-11.462-4.163-26.363-11.126-33.853-11.027-11.861-24.539-11.021-41.093-10.603l-.707-16.044,238.939-.013,5.737,83.836-15.159-.035c-3.406-15.655-7.004-28.903-14.833-42.445-13.377-10.393-29.479-14.605-46.734-14.794l-65.002-.712-.073,101.147,44.964-2.593c21.945-1.266,33.625-18.704,31.169-40.21-.303-2.654.571-8.173,1.905-10.248s7.963-1.391,12.712-.892l.042,133.175-13.738-.242-1.622-23.913c-2.058-30.331-41.614-29.378-75.561-29.037Z"/>
  <path d="M259.21,1255.768l139.218-.002-.071,14.272-19.643,1.094c-32.07,1.787-33.598,36.895-34.054,70.407l-1.611,118.445c-3.524,46.7-35.321,83.203-79.009,95.643-28.581,8.138-56.906,8.009-85.355-.67-42.212-12.878-72.144-48.482-75.992-93.954l-1.868-120.085c-.27-17.368-.205-34.732-6.36-50.769-9.793-25.514-43.416-17.148-46.369-21.219-1.471-2.028-1.154-7.943-.76-13.108l155.854-.083.038,14.352-17.427.887c-15.068.767-29.232,10.309-31.338,25.684l-4.045,29.534.488,131.471c.156,42.011,32.711,71.889,73.458,72.709,23.288.468,45.5-3.605,63.032-19.648,15.266-13.97,24.721-34.957,24.71-56.413l-.07-131.937c-.007-13.788-2.794-30.791-11.337-40.779-10.416-12.178-26.015-10.686-40.952-11.303l-.536-14.527Z"/>
  <path d="M4059.726,1559.521c-36.66,7.544-69.178-1.999-100.118-21.866-5.511,6.645-9.159,13.648-12.812,22.896l-13.354.653-.005-117.325,14.84.163c2.979,26.131,11.086,50.826,31.061,68.363,32.229,28.294,90.008,33.362,110.43-5.021,5.378-16.02,3.038-28.66-4.489-41.935-10.093-11.696-22.157-22.17-36.193-29.5l-63.994-33.42c-27.329-14.272-46.108-40.246-49.294-70.346-4.099-38.723,17.972-72.064,54.796-83.39,32.305-9.936,65.412-3.611,93.897,15.338,5.065-6.51,7.705-11.909,10.994-20.353l12.664-.418.016,116.033-14.209-.031c-2.527-24.086-7.956-45.474-21.996-64.077-19.288-25.555-53.39-32.891-80.382-15.809-9.99,6.322-15.818,16.92-16.29,26.604-1.465,30.029,25.55,43.746,55.535,59.621l53.432,28.289c20.61,10.912,37.602,27.679,44.725,50.286,16.107,51.127-15.932,104.271-69.254,115.243Z"/>
  <path d="M5905.864,1305.285l-83.93,123.14,2.165,73.429c.262,8.896,5.631,20.789,12.234,25.905,11.227,8.7,22.844,8.378,38.064,8.541l.28,14.424-153.718.027c-3.579-1.527-3.341-12.833.123-13.941,11.937-1.16,26.154-.442,35.662-8.003,9.093-7.231,13.752-21.46,14.222-33.107l2.582-63.874-70.939-105.636c-20.242-30.143-40.303-59.792-77.863-55.345l-.247-15.056,152.831-.018-.35,15.06c-12.861-.359-25.162-1.598-33.675,7.056-5.412,5.501-.647,19.461,3.803,26.166l62.44,94.077,36.941-54.164,32.704-51.428c1.737-2.732,1.837-11.358.199-14.152s-7.552-6.346-10.933-6.567l-26.292-1.715.185-14.335,129.971-.006-.035,14.913c-26.869-2.319-50.335,11.004-66.423,34.608Z"/>
  <path d="M5245.294,1550.681l-157.713.012.649-12.577c.135-2.62,8.242-2.285,11.155-2.168,19.584.788,37.467-10.812,39.044-31.128l3.276-42.211.338-179.404-76.112,1.944c-13.072.334-27.908,7.957-31.682,20.55l-10.057,33.559-14.769.034,4.685-84.59,303.763.035,4.825,82.252c-1.34,2.48-10.492,4.163-12.874,2.478-6.873-4.864-4.634-34.09-21.865-45.906-10.618-7.282-26.142-10.165-39.166-10.221l-58.104-.251.357,199.805c.026,14.341,3.453,30.318,11.182,41.312,7.513,10.687,21.528,11.099,33.143,12.067l7.949.662c2.079.173,2.041,5.297,1.973,13.746Z"/>
  <path d="M2179.326,1255.831h128.59s.203,14.723.203,14.723c-31.481-2.902-47.807,9.679-60.266,38.6l-108.367,251.562c-3.952,1.025-8.637.932-12.176-.198l-106.283-247.034c-12.864-29.9-27.75-46.3-59.516-42.79l.035-14.857,153.382-.052.462,14.423-30.699,2.579c-5.419.455-12.442,6.217-14.201,10.494-1.905,4.631-1.646,15.199.596,20.397l76.019,176.323,78.017-180.723c1.661-3.848,1.674-13.006.626-16.532-1.18-3.967-7.562-9.577-12.465-9.946l-34.085-2.565.128-14.403Z"/>
  <path d="M1623.133,1550.654l-156.366.106.494-14.126c12.977-.677,23.902-.313,33.98-5.773,11.791-6.39,17.073-21.283,17.731-35.004,2.968-61.863,2.804-122.409.199-184.341-.43-10.221-4.517-23.564-10.69-30.209-10.828-11.656-25.214-11.277-41.485-10.352l-.374-15.149,155.874-.012.168,14.926c-15.218-.168-30.199-1.358-40.527,10.363-8.493,9.64-11.943,26.096-11.965,39.984l-.259,158.762c-.019,11.691,2.364,25.004,5.914,35.228,5.622,16.188,21.846,19.851,37.63,21.059l7.787.596c2.098.161,1.953,5.518,1.888,13.942Z"/>
  <path d="M4664.307,1550.124l-156.406.108.501-14.021c12.922-.814,24.013-.389,33.964-5.821,11.804-6.443,17.758-21.388,17.772-35.052l.199-184.362c.011-10.24-4.476-23.558-10.676-30.211-10.866-11.661-25.202-11.271-41.518-10.328l-.415-15.159,155.901-.052.196,14.943c-14.768-.067-28.933-1.443-39.486,9.273-9.426,9.572-12.946,26.622-12.99,41.087l-.454,149.703,2.889,33.747c3.034,35.449,42.275,30.408,48.628,32.345,2.01.613,1.889,5.095,1.896,13.799Z"/>
</svg>